name C:\Users\u0101727\Documents\MyRepositories\upper-imu-dc\Results\main_tracking\Case_45\FLX01_angularVelocities_groundFrame.mot
datacolumns 4
datarows 129
range 5.00600000 5.77400000
endheader 
time	radius_imu_x	radius_imu_y	radius_imu_z	
          5.00600000	          0.89604958	         -0.01151153	         -1.24967442	
          5.01200000	          0.90064617	          0.03392686	         -1.23657409	
          5.01800000	          0.90502123	          0.08013748	         -1.22306023	
          5.02400000	          0.90921911	          0.12698859	         -1.20912040	
          5.03000000	          0.91331367	          0.17436921	         -1.19474352	
          5.03600000	          0.91739267	          0.22219377	         -1.17992651	
          5.04200000	          0.92150604	          0.27040216	         -1.16469502	
          5.04800000	          0.92558918	          0.31895475	         -1.14913585	
          5.05400000	          0.92943150	          0.36782352	         -1.13341573	
          5.06000000	          0.93273836	          0.41698330	         -1.11776348	
          5.06600000	          0.93521970	          0.46641001	         -1.10243258	
          5.07200000	          0.93663274	          0.51608519	         -1.08767397	
          5.07800000	          0.93678256	          0.56600024	         -1.07372502	
          5.08400000	          0.93551110	          0.61615654	         -1.06080592	
          5.09000000	          0.93269331	          0.66656051	         -1.04911602	
          5.09600000	          0.92823576	          0.71721833	         -1.03883103	
          5.10200000	          0.92207994	          0.76813008	         -1.03009939	
          5.10800000	          0.91420499	          0.81928530	         -1.02303969	
          5.11400000	          0.90462692	          0.87066106	         -1.01774009	
          5.12000000	          0.89339615	          0.92222127	         -1.01425877	
          5.12600000	          0.88059427	          0.97391682	         -1.01262501	
          5.13200000	          0.86632818	          1.02568697	         -1.01284139	
          5.13800000	          0.85072444	          1.07746064	         -1.01488591	
          5.14400000	          0.83392595	          1.12915638	         -1.01871349	
          5.15000000	          0.81608861	          1.18068188	         -1.02425730	
          5.15600000	          0.79738014	          1.23193233	         -1.03142909	
          5.16200000	          0.77797891	          1.28278832	         -1.04011925	
          5.16800000	          0.75807306	          1.33311374	         -1.05019622	
          5.17400000	          0.73785952	          1.38275385	         -1.06150563	
          5.18000000	          0.71754202	          1.43153448	         -1.07386965	
          5.18600000	          0.69732937	          1.47926159	         -1.08708622	
          5.19200000	          0.67743190	          1.52572271	         -1.10092986	
          5.19800000	          0.65805736	          1.57068944	         -1.11515352	
          5.20400000	          0.63940677	          1.61392073	         -1.12949144	
          5.21000000	          0.62166790	          1.65516828	         -1.14366447	
          5.21600000	          0.60501102	          1.69418095	         -1.15738543	
          5.22200000	          0.58958180	          1.73071132	         -1.17036716	
          5.22800000	          0.57549561	          1.76452170	         -1.18233094	
          5.23400000	          0.56283532	          1.79538783	         -1.19301344	
          5.24000000	          0.55164847	          1.82310314	         -1.20217432	
          5.24600000	          0.54194752	          1.84748090	         -1.20960223	
          5.25200000	          0.53371119	          1.86835557	         -1.21512002	
          5.25800000	          0.52688762	          1.88558290	         -1.21858866	
          5.26400000	          0.52140012	          1.89903838	         -1.21990931	
          5.27000000	          0.51715430	          1.90861451	         -1.21902383	
          5.27600000	          0.51404505	          1.91421818	         -1.21591439	
          5.28200000	          0.51196465	          1.91576671	         -1.21060093	
          5.28800000	          0.51080984	          1.91318436	         -1.20313758	
          5.29400000	          0.51048650	          1.90640022	         -1.19360911	
          5.30000000	          0.51091359	          1.89534607	         -1.18212618	
          5.30600000	          0.51202459	          1.87995559	         -1.16882078	
          5.31200000	          0.51376756	          1.86016406	         -1.15384076	
          5.31800000	          0.51610362	          1.83590855	         -1.13734417	
          5.32400000	          0.51900404	          1.80712917	         -1.11949432	
          5.33000000	          0.52244658	          1.77377046	         -1.10045496	
          5.33600000	          0.52641162	          1.73578335	         -1.08038612	
          5.34200000	          0.53087800	          1.69312756	         -1.05944093	
          5.34800000	          0.53581963	          1.64577406	         -1.03776349	
          5.35400000	          0.54120341	          1.59370766	         -1.01548802	
          5.36000000	          0.54698849	          1.53692959	         -0.99273959	
          5.36600000	          0.55312702	          1.47546002	         -0.96963598	
          5.37200000	          0.55956667	          1.40934047	         -0.94629107	
          5.37800000	          0.56625416	          1.33863635	         -0.92281923	
          5.38400000	          0.57313927	          1.26343985	         -0.89934009	
          5.39000000	          0.58017953	          1.18387270	         -0.87598374	
          5.39600000	          0.58734467	          1.10008896	         -0.85289600	
          5.40200000	          0.59462155	          1.01227686	         -0.83024375	
          5.40800000	          0.60201896	          0.92065987	         -0.80822047	
          5.41400000	          0.60957251	          0.82549654	         -0.78705195	
          5.42000000	          0.61734983	          0.72707936	         -0.76700238	
          5.42600000	          0.62545618	          0.62573239	         -0.74837957	
          5.43200000	          0.63403923	          0.52180997	         -0.73153904	
          5.43800000	          0.64329328	          0.41569388	         -0.71688182	
          5.44400000	          0.65345900	          0.30778745	         -0.70483969	
          5.45000000	          0.66480483	          0.19852360	         -0.69584128	
          5.45600000	          0.67760750	          0.08830826	         -0.69017842	
          5.46200000	          0.69187979	         -0.02221597	         -0.68789745	
          5.46800000	          0.70729436	         -0.13298122	         -0.68816591	
          5.47400000	          0.72133136	         -0.24100168	         -0.69011440	
          5.48000000	          0.72389926	         -0.35131785	         -0.69754311	
          5.48600000	          0.72617578	         -0.45821005	         -0.70035436	
          5.49200000	          0.72417498	         -0.56026909	         -0.69998885	
          5.49800000	          0.71876680	         -0.65761165	         -0.69778717	
          5.50400000	          0.71068291	         -0.74934538	         -0.69483412	
          5.51000000	          0.70101990	         -0.83507445	         -0.69237877	
          5.51600000	          0.69097802	         -0.91435010	         -0.69174895	
          5.52200000	          0.68186486	         -0.98674001	         -0.69445775	
          5.52800000	          0.67517558	         -1.05218293	         -0.70203094	
          5.53400000	          0.67187464	         -1.10985623	         -0.71671410	
          5.54000000	          0.67355429	         -1.16212577	         -0.73941905	
          5.54600000	          0.67885549	         -1.21091440	         -0.77134056	
          5.55200000	          0.68737955	         -1.25660864	         -0.81316515	
          5.55800000	          0.69939587	         -1.30174437	         -0.86562866	
          5.56400000	          0.71475379	         -1.35066819	         -0.92886808	
          5.57000000	          0.78896600	         -1.39313870	         -0.96209796	
          5.57600000	          0.73391975	         -1.42869795	         -1.08602862	
          5.58200000	          0.74147337	         -1.47166859	         -1.15555945	
          5.58800000	          0.73921911	         -1.50513044	         -1.21969958	
          5.59400000	          0.72826176	         -1.53218449	         -1.27417018	
          5.60000000	          0.70842095	         -1.55208186	         -1.31921582	
          5.60600000	          0.68055767	         -1.56531429	         -1.35473393	
          5.61200000	          0.64560186	         -1.57198255	         -1.38104735	
          5.61800000	          0.60462415	         -1.57217133	         -1.39854457	
          5.62400000	          0.55875197	         -1.56593571	         -1.40772895	
          5.63000000	          0.50916956	         -1.55339769	         -1.40922263	
          5.63600000	          0.45711845	         -1.53477353	         -1.40378656	
          5.64200000	          0.40389961	         -1.51034675	         -1.39233313	
          5.64800000	          0.35089125	         -1.48044341	         -1.37592878	
          5.65400000	          0.29953713	         -1.44534225	         -1.35583791	
          5.66000000	          0.25146722	         -1.40550908	         -1.33348298	
          5.66600000	          0.20811511	         -1.36080146	         -1.31086158	
          5.67200000	          0.17216855	         -1.31430088	         -1.28945673	
          5.67800000	          0.14217974	         -1.25991676	         -1.27578107	
          5.68400000	          0.13253731	         -1.23604525	         -1.26319979	
          5.69000000	          0.11155108	         -1.20334744	         -1.26260732	
          5.69600000	          0.10396539	         -1.14287557	         -1.27686973	
          5.70200000	          0.11025159	         -1.12726626	         -1.27036717	
          5.70800000	          0.11517569	         -1.10597124	         -1.26499515	
          5.71400000	          0.12340399	         -1.08874805	         -1.25695671	
          5.72000000	          0.13571569	         -1.07028909	         -1.24975131	
          5.72600000	          0.14359366	         -1.05657552	         -1.24544552	
          5.73200000	          0.16126588	         -1.05184729	         -1.24290659	
          5.73800000	          0.18395125	         -1.05094537	         -1.24121051	
          5.74400000	          0.20410279	         -1.05525703	         -1.24837879	
          5.75000000	          0.21677166	         -1.05358286	         -1.26636438	
          5.75600000	          0.24551601	         -1.04174382	         -1.28585464	
          5.76200000	          0.28024764	         -1.06684782	         -1.29264010	
          5.76800000	          0.38146566	         -1.07581963	         -1.29080515	
          5.77400000	          0.32276434	         -1.06400346	         -1.33089922	
